<?xml version="1.0" encoding="UTF-8"?>
<svg xmlns="http://www.w3.org/2000/svg" version="1.1" viewBox="0 0 340 400">
  <defs>
    <style>
      .cls-1 {
        fill: #006286;
      }

      .cls-2 {
        fill: #00aa47;
      }

      .cls-3 {
        fill: #fff;
      }
    </style>
  </defs>
  <!-- Generator: Adobe Illustrator 28.7.1, SVG Export Plug-In . SVG Version: 1.2.0 Build 142)  -->
  <g>
    <g id="Layer_1">
      <g>
        <path class="cls-1" d="M335,230.6c0,91.1-73.9,165-165,165S5,321.7,5,230.6h330Z"/>
        <ellipse cx="170" cy="230.8" rx="165" ry="38.2"/>
        <path class="cls-2" d="M234.7,49.3c1.6-2.7,3.1-5.4,4.7-8.1l6.9-11.9c1.7-2.9,3.3-5.7,5-8.6.4-.7.7-1.4.9-2.1.9-3,.6-6.2-1-8.8-.9-1.5-2.2-2.8-3.7-3.7-1.4-.8-3-1.3-4.6-1.5-1.2-.1-2.5,0-3.7.3-2.8.7-5.1,2.5-6.5,5-1.7,2.9-3.3,5.7-5,8.6l-6.9,11.9c-2.2,3.9-4.5,7.7-6.7,11.6-14.1-4-28.9-6.2-44.1-6.2s-29.8,2.2-43.9,6.1c-2.2-3.8-4.4-7.7-6.6-11.5l-6.9-11.9c-1.7-2.9-3.3-5.7-5-8.6-2.1-3.6-6.1-5.7-10.2-5.3-1.6.1-3.2.6-4.6,1.5-2.4,1.4-4.2,3.8-4.9,6.5-.7,2.8-.3,5.7,1.1,8.2l5,8.6,6.9,11.9c1.5,2.7,3.1,5.4,4.6,8-37.5,16.2-68.3,45.8-85.7,81.7h300.4c-17.4-35.9-48.2-65.4-85.5-81.6Z"/>
        <path d="M230.7,82.7c4.7-3.1,5.4-10.3,1.5-16.1-3.8-5.8-10.7-7.9-15.4-4.8-4.7,3.1-5.4,10.3-1.5,16.1,3.8,5.8,10.7,7.9,15.4,4.8M124.7,77.9c3.8-5.8,3.2-13-1.5-16.1-4.7-3.1-11.6-1-15.4,4.8-3.8,5.8-3.2,13,1.5,16.1s11.6,1,15.4-4.8"/>
        <g>
          <path class="cls-3" d="M198.7,200.9c-9.9,0-19.5.3-28.7.8,54.3,3,94.7,14.3,94.7,27.8s-40.4,24.8-94.7,27.8c9.2.5,18.8.8,28.7.8,68.2,0,123.4-12.8,123.4-28.6s-55.3-28.6-123.4-28.6Z"/>
          <path d="M75.3,229.5c0-13.5,40.4-24.8,94.7-27.8-9.2-.5-18.8-.8-28.7-.8-68.2,0-123.4,12.8-123.4,28.6s55.3,28.6,123.4,28.6,19.5-.3,28.7-.8c-54.3-3-94.7-14.3-94.7-27.8Z"/>
          <path class="cls-3" d="M264.7,229.5c0-13.5-40.4-24.8-94.7-27.8-54.3,3-94.7,14.3-94.7,27.8s40.4,24.8,94.7,27.8c54.3-3,94.7-14.3,94.7-27.8Z"/>
          <path class="cls-2" d="M264.7,229.5c0-13.5-40.4-24.8-94.7-27.8-54.3,3-94.7,14.3-94.7,27.8s40.4,24.8,94.7,27.8c54.3-3,94.7-14.3,94.7-27.8Z"/>
        </g>
        <ellipse cx="170" cy="135.5" rx="151.4" ry="37.8"/>
      </g>
    </g>
  </g>
</svg>